<?xml version="1.0" encoding="UTF-8" standalone="no"?>
<svg id="ciao" width="512px" height="256px" viewBox="0 0 512 256" version="1.1" xmlns="http://www.w3.org/2000/svg" xmlns:xlink="http://www.w3.org/1999/xlink" xmlns:sketch="http://www.bohemiancoding.com/sketch/ns">
    <g stroke="none" stroke-width="1" fill="none" fill-rule="evenodd">
        <path d="M479.844,36.406 C469.656,25.124 457.062,16.188 442.188,9.688 C427.282,3.25 410.47,0 391.812,0 C376.936,0 363.124,2.344 350.28,6.938 C337.498,11.594 325.624,17.688 314.718,25.344 C303.75,32.938 293.468,41.876 283.936,52.062 C274.374,62.186 265.186,72.624 256.374,83.25 C247.03,72.126 237.624,61.626 228.062,51.688 C218.5,41.75 208.25,32.938 197.344,25.344 C186.376,17.688 174.5,11.594 161.688,6.938 C148.876,2.344 134.812,0 119.438,0 C100.814,0 84.062,3.376 69.126,10.062 C54.25,16.78 41.626,25.812 31.408,37.124 C21.158,48.436 13.376,61.874 8.032,77.374 C2.626,92.874 0,109.624 0,127.624 C0,145.718 2.812,162.592 8.376,178.28 C13.938,194.03 22.126,207.562 32.844,218.842 C43.532,230.28 56.376,239.28 71.25,245.936 C86.126,252.686 103.126,255.998 122.25,255.998 C137.626,255.998 151.438,253.716 163.812,249.374 C176.124,244.998 187.562,239.28 198.03,232.062 C208.498,224.874 218.374,216.594 227.686,207.124 C236.998,197.624 246.562,187.718 256.374,177.624 C265.186,187.718 274.498,197.624 284.312,207.124 C294.062,216.592 304.406,224.874 315.344,232.062 C326.282,239.28 338.094,245 350.688,249.374 C363.282,253.718 376.72,255.998 391.188,255.998 C409.72,255.998 426.688,252.686 441.72,245.936 C456.908,239.28 469.658,229.968 479.844,218.28 C490.126,206.374 498.032,192.686 503.626,176.874 C509.282,161.28 512.002,144.25 512.002,126.25 C512.002,108.218 509.284,91.594 503.626,76.312 C498.032,61.062 490.124,47.75 479.844,36.406 L479.844,36.406 Z M195.594,149.5 C188.626,156.282 181.126,162.282 173.218,167.562 C165.312,172.812 156.874,177.28 148.094,180.718 C139.218,184.28 130.376,185.906 121.562,185.906 C104.312,185.906 90.812,180.624 81.03,169.968 C71.248,159.312 66.374,145.718 66.374,129.062 C66.374,113.78 71.124,100.03 80.656,87.75 C90.188,75.5 103.124,69.374 119.438,69.374 C128.282,69.374 137.126,71.374 146,75.28 C154.844,79.186 163.344,84.186 171.468,90.186 C179.624,96.186 187.406,102.81 194.874,109.936 C202.342,117.124 208.874,123.718 214.436,129.718 C208.876,136.188 202.562,142.782 195.594,149.5 L195.594,149.5 Z M432.312,169.282 C423.062,180.344 409.718,185.906 392.562,185.906 C382.718,185.906 373.594,184.282 364.938,181.094 C356.314,177.812 348.094,173.562 340.188,168.282 C332.282,162.906 324.72,156.876 317.72,150.282 C310.782,143.5 304.252,136.626 298.252,129.72 C303.814,123.72 310.158,117.126 317.128,109.938 C324.128,102.814 331.44,96.188 339.128,90.188 C346.722,84.188 354.94,79.188 363.566,75.282 C372.222,71.376 381.19,69.376 390.442,69.376 C407.724,69.376 421.286,75.126 431.286,86.72 C441.286,98.314 446.318,112.126 446.318,128.376 C446.312,144.562 441.718,158.218 432.312,169.282 L432.312,169.282 Z" fill="#000000"></path>
    </g>
</svg>