<?xml version="1.0" encoding="UTF-8" standalone="no"?>
<svg width="512px" height="320px" viewBox="0 0 512 320" version="1.1" xmlns="http://www.w3.org/2000/svg" xmlns:xlink="http://www.w3.org/1999/xlink" xmlns:sketch="http://www.bohemiancoding.com/sketch/ns">
    <g stroke="none" stroke-width="1" fill="none" fill-rule="evenodd">
        <g fill="#000000">
            <g>
                <path d="M229.062,33.312 C238.5,46.5 243.25,62.406 243.25,80.906 C243.25,99.938 238.438,115.312 228.938,126.906 C223.562,133.374 215.782,139.312 205.438,144.624 C221.156,150.468 233.032,159.592 241.062,172.156 C249.062,184.812 253.062,200 253.062,217.938 C253.062,236.438 248.5,253 239.312,267.656 C233.5,277.438 226.25,285.594 217.5,292.344 C207.688,299.938 196,305.094 182.656,307.968 C169.25,310.718 154.718,312.124 139.062,312.124 L0,312.124 L0,0 L149.156,0 C186.75,0.532 213.438,11.624 229.062,33.312 L229.062,33.312 Z M61.562,54.282 L61.562,123.032 L136.562,123.032 C149.938,123.032 160.78,120.47 169.218,115.344 C177.5,110.126 181.718,101 181.718,87.906 C181.718,73.312 176.186,63.812 165.156,59.094 C155.656,55.844 143.438,54.282 128.688,54.282 L61.562,54.282 L61.562,54.282 Z M61.562,174.812 L61.562,257.968 L136.438,257.968 C149.814,257.968 160.25,256.062 167.688,252.436 C181.25,245.624 188,232.624 188,213.468 C188,197.186 181.438,186.062 168.312,180 C161,176.624 150.75,174.876 137.5,174.812 L61.562,174.812 L61.562,174.812 Z"></path>
                <path d="M452.312,85.968 C468.25,93.218 481.406,104.562 491.812,120.124 C501.094,133.936 507.188,149.812 510,167.906 C511.562,178.468 512.218,193.688 511.938,213.624 L345.75,213.624 C346.688,236.874 354.688,253.062 369.688,262.406 C378.75,268.188 389.72,271.062 402.5,271.062 C416.094,271.062 427.156,267.53 435.594,260.468 C440.282,256.656 444.344,251.436 447.938,244.592 L508.814,244.592 C507.22,258.216 499.814,272.186 486.69,286.374 C466.25,308.718 437.624,320 400.844,320 C370.5,320 343.75,310.532 320.5,291.594 C297.312,272.626 285.75,241.876 285.75,199.156 C285.75,159.218 296.188,128.5 317.188,107.156 C338.094,85.844 365.282,75.124 398.72,75.124 C418.562,75.124 436.438,78.844 452.312,85.968 L452.312,85.968 Z M363.124,138.124 C354.686,146.968 349.436,158.842 347.248,173.936 L450,173.936 C448.906,157.874 443.594,145.654 434.062,137.404 C424.594,129.122 412.812,124.966 398.75,124.966 C383.438,124.968 371.532,129.406 363.124,138.124 L363.124,138.124 Z"></path>
            </g>
            <rect x="318" y="0" width="160" height="32"></rect>
        </g>
    </g>
</svg>