<?xml version="1.0" encoding="UTF-8" standalone="no"?>
<svg width="512px" height="512px" viewBox="0 0 512 512" version="1.1" xmlns="http://www.w3.org/2000/svg" xmlns:xlink="http://www.w3.org/1999/xlink" xmlns:sketch="http://www.bohemiancoding.com/sketch/ns">
    <g stroke="none" stroke-width="1" fill="none" fill-rule="evenodd">
        <g fill="#000000">
            <path d="M478.898,192 L450.795,192 L450.195,192 C432.612,192 417.201,177.129 416,160 L416,160 C416.002,68.666 342.371,0 250.405,0 L166.493,0 C74.587,0 0.065,74 0,165.333 L0,346.732 C0,438.059 74.587,512 166.492,512 L345.702,512 C437.676,512 512,438.059 512,346.732 L512,229.541 C512,211.29 497.28,192 478.898,192 L478.898,192 Z M160,128 L256,128 C273.6,128 288,142.4 288,160 C288,177.6 273.6,192 256,192 L160,192 C142.4,192 128,177.6 128,160 C128,142.4 142.4,128 160,128 L160,128 Z M352,384 L160,384 C142.4,384 128,369.6 128,352 C128,334.4 142.4,320 160,320 L352,320 C369.6,320 384,334.4 384,352 C384,369.6 369.6,384 352,384 L352,384 Z"></path>
        </g>
    </g>
</svg>