<?xml version="1.0" encoding="UTF-8" standalone="no"?>
<svg width="512px" height="512px" viewBox="0 0 512 512" version="1.1" xmlns="http://www.w3.org/2000/svg" xmlns:xlink="http://www.w3.org/1999/xlink" xmlns:sketch="http://www.bohemiancoding.com/sketch/ns">
    <g stroke="none" stroke-width="1" fill="none" fill-rule="evenodd">
        <g fill="#000000">
            <path d="M426.688,0 L85.343,0 C38.405,0 0,38.408 0,85.346 L0,426.658 C0,473.623 38.405,512 85.343,512 L426.688,512 C473.625,512 512,473.624 512,426.658 L512,85.346 C512,38.408 473.625,0 426.688,0 L426.688,0 Z M480,426.658 C480,440.825 474.43,454.199 464.315,464.316 C454.204,474.43 440.841,480 426.688,480 L256,480 L256,256 L32,256 L32,85.346 C32,71.192 37.575,57.821 47.698,47.698 C57.82,37.575 71.19,32 85.343,32 L256,32 L256,256 L480,256 L480,426.658 L480,426.658 Z"></path>
        </g>
    </g>
</svg>