<?xml version="1.0" encoding="UTF-8" standalone="no"?>
<svg width="512px" height="261px" viewBox="0 0 512 261" version="1.1" xmlns="http://www.w3.org/2000/svg" xmlns:xlink="http://www.w3.org/1999/xlink" xmlns:sketch="http://www.bohemiancoding.com/sketch/ns">
    <g stroke="none" stroke-width="1" fill="none" fill-rule="evenodd">
        <g fill="#000000">
            <path d="M280.928443,77.663 C261.407443,76.522 238.887443,77.687 212.803443,82.138 L272.970443,190.582 L512.000443,124.949 C509.423443,118.819 505.657443,112.836 500.669443,107.05 C475.932443,78.411 422.299443,52.863 363.867443,41.341 L363.868443,41.328 C306.546443,27.891 244.467443,28.456 180.888443,38.054 C178.596443,38.398 176.316443,38.765 174.048443,39.146 L152.912443,0 C132.341443,2.746 113.008443,7.025 95.1094426,12.737 L115.239443,54.836 C82.3594426,67.574 55.3784426,85.716 35.9104426,107.552 C3.80444261,144.084 -8.88455739,190.006 6.53744261,234.728 C9.63944261,243.749 13.8314426,252.308 19.0054426,260.326 L258.039443,194.677 L191.664443,71.753 C193.943443,71.313 196.262443,70.869 198.628443,70.441 C305.969443,51.292 364.679443,80.873 396.836443,112.356 L315.057443,132.18 L280.928443,77.663 L280.928443,77.663 Z M87.3614426,187.358 C79.9824426,153.682 85.8554426,116.095 132.563443,91.061 L169.132443,167.535 L87.3614426,187.358 L87.3614426,187.358 Z"></path>
        </g>
    </g>
</svg>