<?xml version="1.0" encoding="UTF-8" standalone="no"?>
<svg width="512px" height="399px" viewBox="0 0 512 399" version="1.1" xmlns="http://www.w3.org/2000/svg" xmlns:xlink="http://www.w3.org/1999/xlink" xmlns:sketch="http://www.bohemiancoding.com/sketch/ns">
    <g stroke="none" stroke-width="1" fill="none" fill-rule="evenodd">
        <path d="M313.287953,142.374 L398.131953,142.374 C413.819953,142.374 426.599953,129.624 426.599953,113.906 L426.599953,28.468 C426.599953,12.75 413.817953,0 398.131953,0 L313.287953,0 C297.537953,0 284.787953,12.75 284.787953,28.468 L284.787953,113.906 C284.787953,129.624 297.537953,142.374 313.287953,142.374 L313.287953,142.374 Z M87.8179525,54.562 C-2.37004748,54.562 0.00595251976,110.344 0.00595251976,110.344 L0.00595251976,199.312 C0.00595251976,223.062 28.5059525,227.812 28.5059525,227.812 L56.9439525,227.812 L56.9439525,315.25 C24.4439525,319.188 1.81995252,336.188 1.81995252,356.562 C1.81995252,379.812 46.1319525,398.624 85.4439525,398.624 C124.755953,398.624 169.131953,381.624 169.131953,358.312 C169.131953,338.25 145.881953,319.624 114.099953,315.436 L113.943953,227.812 L141.193953,227.812 C168.505953,227.812 170.881953,199.312 170.881953,199.312 L170.881953,109.156 C170.879953,54.562 87.8179525,54.562 87.8179525,54.562 L87.8179525,54.562 Z M510.255953,112.688 C510.255953,84.25 481.755953,84.25 481.755953,84.25 L455.631953,84.25 L455.631953,158.374 C455.631953,176.186 441.413953,171.436 441.413953,171.436 L266.413953,171.436 C253.319953,171.436 253.319953,158.374 253.319953,158.374 L253.943953,86.624 L226.475953,84 C196.193953,84 199.381953,113.312 199.381953,113.312 L199.381953,170.874 C199.381953,170.874 195.131953,199.312 223.631953,199.312 L256.287953,199.312 L256.287953,371.374 C256.287953,401.062 283.601953,397.498 283.601953,397.498 L314.445953,397.498 C342.945953,397.498 341.757953,370.186 341.757953,370.186 L341.757953,284.748 C341.757953,269.372 355.975953,265.186 355.975953,265.186 C364.287953,265.186 369.037953,283.562 369.037953,283.562 L369.037953,369.062 C369.037953,398.624 408.193953,398.624 408.193953,398.624 L423.037953,398.624 C451.505953,398.624 453.819953,371.374 453.819953,371.374 L455.629953,199.312 L480.567953,199.312 C509.005953,199.312 512.005953,168.468 512.005953,168.468 L510.255953,112.688 L510.255953,112.688 Z" fill="#000000"></path>
    </g>
</svg>