<?xml version="1.0" encoding="UTF-8" standalone="no"?>
<svg width="512px" height="512px" viewBox="0 0 512 512" version="1.1" xmlns="http://www.w3.org/2000/svg" xmlns:xlink="http://www.w3.org/1999/xlink" xmlns:sketch="http://www.bohemiancoding.com/sketch/ns">
    <g stroke="none" stroke-width="1" fill="none" fill-rule="evenodd">
        <path d="M256,0 C114.624,0.032 0,114.61 0,256 C0,397.376 114.624,512 256,512 C397.376,512 512,397.376 512,256 C512,114.61 397.376,0.032 256,0 L256,0 Z M412.844,132.734 C437.812,164.438 453.468,203.718 455.438,246.624 C426.532,240.5 399.22,237.5 373.782,237.5 L373.782,237.5 L373.594,237.5 C353.126,237.5 333.876,239.344 315.75,242.562 C311.312,231.75 306.874,221.374 302.374,211.438 C342.75,193.75 381.5,168.562 412.844,132.734 L412.844,132.734 Z M256,56.282 C303.124,56.282 346.344,72.736 380.562,100.172 C354.374,131.516 319.78,154.188 282.468,170.25 C256.218,119.516 230.874,83.204 213.53,61.032 C227.25,58.032 241.406,56.282 256,56.282 L256,56.282 Z M167.75,77.078 C181.626,93.454 209.406,129.484 239.032,185.75 C178.75,203.688 118.064,207.874 81.314,207.874 L78.19,207.874 L78.19,207.874 C72.002,207.874 66.69,207.75 62.222,207.624 C76.562,150.312 115.812,102.796 167.75,77.078 L167.75,77.078 Z M56.282,256 C56.282,255.062 56.314,254.124 56.376,253.124 C62.064,253.342 69.376,253.53 78.188,253.53 L78.188,253.53 C118.376,253.248 188.5,249.906 259.5,227.468 C263.376,235.936 267.188,244.75 271,253.936 C223.562,269.78 186.188,295.06 158.562,320.248 C131.938,344.5 114,368.468 103.5,384.468 C74.062,349.688 56.282,305 56.282,256 L56.282,256 Z M256,455.718 C211.532,455.718 170.562,441.03 137.312,416.342 C144.436,404.718 159.562,382.436 183.688,359.342 C208.47,335.56 242.72,311.06 287.47,296.498 C302.658,339.122 316.408,387.81 326.908,442.654 C304.812,451.062 280.968,455.718 256,455.718 L256,455.718 Z M369.032,420.282 C358.908,370.688 346.156,326 332.188,286.064 C345.156,284.22 358.782,283.158 373.156,283.158 L373.656,283.158 L373.688,283.158 L373.72,283.158 C397.532,283.158 423.688,286.126 452.096,292.564 C442.282,345.376 411.688,390.844 369.032,420.282 L369.032,420.282 Z" fill="#000000"></path>
    </g>
</svg>