<?xml version="1.0" encoding="UTF-8" standalone="no"?>
<svg width="512px" height="512px" viewBox="0 0 512 512" version="1.1" xmlns="http://www.w3.org/2000/svg" xmlns:xlink="http://www.w3.org/1999/xlink" xmlns:sketch="http://www.bohemiancoding.com/sketch/ns">
    <g stroke="none" stroke-width="1" fill="none" fill-rule="evenodd">
        <path d="M375.688,140.718 C376.032,138.5 376.188,136.436 376.188,134.53 C376.188,116.936 365.188,108.186 343.188,108.186 C332.626,108.186 325.5,109.998 321.812,113.562 C318.062,117.186 315.5,124.344 314,135.062 C305.562,123.186 297.062,115.186 288.5,111.03 C280.624,107.248 269.344,105.374 254.75,105.374 C217.156,105.374 184.532,124.498 157,162.718 C131.624,197.874 118.968,235.436 118.968,275.374 C118.968,306.562 127.186,333.936 143.656,357.562 C161.906,383.594 185.78,396.594 215.188,396.594 C240.376,396.594 264.564,387.562 287.72,369.5 C298.158,387.562 316.002,396.594 341.188,396.594 C388.876,396.594 429.72,376.47 463.626,336.188 C495.876,297.876 512,253.812 512,204.062 C512,144.562 486.968,94.938 436.906,55.218 C390.532,18.438 337.5,0 277.688,0 C199.876,0 134.564,24.594 81.656,73.812 C27.218,124.562 0,189.312 0,268.124 C0,348.656 27.906,410.5 83.656,453.686 C133.718,492.594 199.376,512 280.688,512 C315.312,512 349.064,506.594 382,495.718 C418.124,483.874 447.844,467 471.188,445.124 C478.72,437.906 485.97,429.124 492.844,418.812 C501.438,406.218 505.688,396.062 505.688,388.344 C505.688,382.5 503.656,377.282 499.532,372.688 C495.438,368.126 490.5,365.844 484.814,365.844 C474.032,365.844 464.97,369.656 457.564,377.188 C445.346,390.312 436.252,400.312 430.376,407.188 C390.376,442.126 340.688,459.594 281.188,459.594 C217.376,459.594 166.312,443.938 128.032,412.626 C86.188,378.408 65.282,329.376 65.282,265.564 C65.282,203.626 85.158,151.876 125,110.314 C164.812,68.782 214.968,48 275.406,48 C322.968,48 362.5,61.5 394.062,88.562 C427.874,117.25 444.718,155.438 444.718,203.062 C444.718,228 440.468,251.25 431.874,272.718 C422.312,296.812 408.436,315.374 390.312,328.436 C376.688,338.218 366.03,343.124 358.312,343.124 C349.906,343.124 345.718,339.186 345.718,331.28 C345.718,327.998 347.874,312.874 352.28,285.842 L375.688,140.718 L375.688,140.718 Z M278.688,283.156 C263.22,326.062 246.75,347.532 229.312,347.532 C203.25,347.532 190.218,330.908 190.218,297.626 C190.218,271.782 197.686,242.688 212.686,210.25 C230.154,171.968 250.03,152.844 272.374,152.844 C281.624,152.844 288.498,157.844 293.03,167.812 C296.718,175.436 298.562,184.5 298.562,195 C298.562,217.438 291.968,246.812 278.688,283.156 L278.688,283.156 Z" fill="#000000"></path>
    </g>
</svg>