<?xml version="1.0" encoding="UTF-8" standalone="no"?>
<svg width="512px" height="586px" viewBox="0 0 512 586" version="1.1" xmlns="http://www.w3.org/2000/svg" xmlns:xlink="http://www.w3.org/1999/xlink" xmlns:sketch="http://www.bohemiancoding.com/sketch/ns">
    <g stroke="none" stroke-width="1" fill="none" fill-rule="evenodd">
        <path d="M146.461714,146.570961 C146.32,145.998695 146.461714,109.909336 146.461714,109.909336 L146.461714,0 L0.425142857,146.570961 L109.961143,146.570961 C109.961143,146.570961 146.64,147.072266 146.461714,146.570961 L146.461714,146.570961 Z M478.713143,73.5361328 C467.714286,55.2602578 410.249143,42.9199219 380.427429,42.9199219 L303.570286,42.9199219 C303.570286,42.9199219 277.892571,6.9038125 220.105143,1.21549219 C173.462857,-3.36263281 182.998857,15.272625 182.998857,36.625 L182.998857,183.195961 L36.928,183.195961 C36.928,183.195961 0,173.359859 0,198.862305 C0,246.181805 6.28571429,400.228844 108.285714,415.501469 C228.928,433.598797 247.106286,403.806648 247.106286,397.188969 C247.106286,369.756844 251.785143,337.673344 251.785143,337.673344 C251.785143,337.673344 298.571429,392.789391 351.856,390.786461 C404.178286,388.783531 415.177143,423.26368 415.177143,453.699055 L415.177143,510.245766 C415.177143,510.245766 414.962286,531.025875 383.570286,531.025875 L325.533714,531.025875 C325.533714,531.025875 303.570286,528.700187 303.570286,505.809562 C303.570286,482.955562 317.392,476.839187 329.963429,476.839187 C342.498286,476.839187 351.926857,478.377437 351.926857,478.377437 L351.926857,437.174312 C351.926857,437.174312 253.355429,423.403312 253.355429,498.228187 C253.355429,572.945477 292.569143,586 334.925714,586 L403.961143,586 C403.961143,586 511.997714,584.892094 511.997714,346.86393 C511.997714,108.835766 489.675429,91.8486328 478.713143,73.5361328 L478.713143,73.5361328 Z M352.998857,279.76693 C352.998857,279.76693 360.820571,249.22168 384.356571,249.22168 C407.892571,249.22168 430.500571,297.221031 430.500571,297.221031 C430.500571,297.221031 381.211429,279.76693 352.998857,279.76693 L352.998857,279.76693 Z" fill="#000000"></path>
    </g>
</svg>