<?xml version="1.0" encoding="UTF-8" standalone="no"?>
<svg width="512px" height="224px" viewBox="0 0 512 224" version="1.1" xmlns="http://www.w3.org/2000/svg" xmlns:xlink="http://www.w3.org/1999/xlink" xmlns:sketch="http://www.bohemiancoding.com/sketch/ns">
    <g stroke="none" stroke-width="1" fill="none" fill-rule="evenodd">
        <g fill="#000000">
            <path d="M0,112 C1.13166675e-14,173.855892 50.144108,224 112,224 C173.855892,224 224,173.855892 224,112 C224,71.9862539 202.652921,35.0120278 168,15.0051548 C133.347079,-5.00171826 90.6529206,-5.00171826 56,15.0051548 C21.3470794,35.0120278 -5.82128854e-15,71.9862539 9.10391608e-16,112 L0,112 Z M288,112 C288,173.855892 338.144108,224 400,224 C461.855892,224 512,173.855892 512,112 C512,50.144108 461.855892,1.42108547e-13 400,1.42108547e-13 C338.144108,8.52651283e-14 288,50.144108 288,112 L288,112 Z"></path>
        </g>
    </g>
</svg>