<?xml version="1.0" encoding="UTF-8" standalone="no"?>
<svg width="512px" height="586px" viewBox="0 0 512 586" version="1.1" xmlns="http://www.w3.org/2000/svg" xmlns:xlink="http://www.w3.org/1999/xlink" xmlns:sketch="http://www.bohemiancoding.com/sketch/ns">
    <g stroke="none" stroke-width="1" fill="none" fill-rule="evenodd">
        <path d="M510.925246,567.257156 L266.461246,8.01171875 C264.424675,3.14746094 259.853246,0 254.783532,0 L254.783532,0 C249.711532,0 245.140103,3.14746094 243.105818,8.01171875 L1.06924612,567.22282 C-0.645039599,571.407227 -0.288468171,576.200523 2.07038897,579.991211 C4.4269604,583.710938 8.4269604,586 12.7126747,586 L219.425818,586 L219.425818,476.125 L146.246389,439.5 L146.246389,402.875 L219.425818,439.5 L219.425818,329.625 L292.568675,329.625 L292.568675,402.875 L365.748103,366.25 L365.748103,402.875 L292.568675,439.5 L292.568675,476.125 L402.319532,402.875 L402.319532,439.5 L292.568675,512.75 L292.568675,586 L499.284103,586 C503.569818,586 507.569818,583.781898 509.926389,579.991211 C512.28296,576.200523 512.639532,571.407227 510.925246,567.257156 L510.925246,567.257156 Z" fill="#000000"></path>
    </g>
</svg>