<?xml version="1.0" encoding="UTF-8" standalone="no"?>
<svg width="512px" height="433px" viewBox="0 0 512 433" version="1.1" xmlns="http://www.w3.org/2000/svg" xmlns:xlink="http://www.w3.org/1999/xlink" xmlns:sketch="http://www.bohemiancoding.com/sketch/ns">
    <g stroke="none" stroke-width="1" fill="none" fill-rule="evenodd">
        <g fill="#000000">
            <path d="M279.533,0 L145.563,0 C85.503,0 28.978,45.503 28.978,98.211 C28.978,152.074 69.919,195.544 131.022,195.544 C135.271,195.544 139.4,195.459 143.443,195.168 C139.478,202.761 136.642,211.312 136.642,220.189 C136.642,235.158 144.694,247.294 154.876,257.201 C147.183,257.201 139.755,257.425 131.65,257.425 C57.259,257.424 0,304.804 0,353.935 C0,402.324 62.771,432.592 137.167,432.592 C221.979,432.592 268.82,384.47 268.82,336.078 C268.82,297.278 257.372,274.042 221.977,249.011 C209.869,240.439 186.712,219.593 186.712,207.339 C186.712,192.979 190.81,185.905 212.426,169.016 C234.582,151.704 250.262,127.365 250.262,99.058 C250.262,65.355 235.252,32.509 207.076,21.672 L249.553,21.672 L279.533,0 L279.533,0 Z M232.74,327.729 C233.803,332.215 234.382,336.832 234.382,341.543 C234.382,380.643 209.186,411.198 136.895,411.198 C85.474,411.198 48.337,378.646 48.337,339.548 C48.337,301.227 94.4,269.326 145.819,269.882 C157.819,270.009 169.003,271.94 179.154,275.227 C207.067,294.64 227.092,305.608 232.74,327.729 L232.74,327.729 Z M150.409,181.888 C115.89,180.856 83.091,143.275 77.133,97.958 C71.175,52.625 94.318,17.937 128.827,18.963 C163.332,20 196.146,56.37 202.106,101.692 C208.059,147.022 184.911,182.921 150.409,181.888 L150.409,181.888 Z M416,96 L416,0 L384,0 L384,96 L288,96 L288,128 L384,128 L384,224 L416,224 L416,128 L512,128 L512,96 L416,96 Z"></path>
        </g>
    </g>
</svg>