<?xml version="1.0" encoding="UTF-8" standalone="no"?>
<svg width="512px" height="512px" viewBox="0 0 512 512" version="1.1" xmlns="http://www.w3.org/2000/svg" xmlns:xlink="http://www.w3.org/1999/xlink" xmlns:sketch="http://www.bohemiancoding.com/sketch/ns">
    <g stroke="none" stroke-width="1" fill="none" fill-rule="evenodd">
        <path d="M225.228507,1.74513263 C153.604507,9.36913263 100.540507,44.6211326 64.8525066,85.9631326 C29.4765066,126.869133 -1.27149336,186.245133 0.0405066433,260.431133 C1.35250664,333.993133 31.0405066,389.713133 68.8525066,430.869133 C114.852507,481.025133 187.164507,518.213133 279.352507,511.119133 C411.070507,500.931133 514.820507,391.713133 511.914507,248.401133 C510.538507,180.245133 474.352507,115.433133 441.758507,79.9331326 C392.790507,26.5891326 319.760507,-8.38086737 225.228507,1.74513263 L225.228507,1.74513263 Z M359.572507,266.433133 C305.290507,197.245133 264.166507,133.995133 165.102507,105.995133 C167.352507,163.495133 173.790507,227.619133 139.040507,268.463133 C123.416507,286.745133 92.2285066,307.087133 68.8525066,296.525133 C45.1645066,285.807133 51.8525066,239.181133 58.8525066,208.307133 C77.9145066,123.713133 148.040507,58.2131326 241.290507,51.8691326 C324.384507,46.1811326 396.008507,94.1191326 427.728507,146.119133 C444.040507,172.869133 458.884507,218.619133 457.822507,256.431133 C455.478507,338.495133 393.666507,309.963133 359.572507,266.433133 L359.572507,266.433133 Z" fill="#000000"></path>
    </g>
</svg>