<?xml version="1.0" encoding="UTF-8" standalone="no"?>
<svg width="512px" height="512px" viewBox="0 0 512 512" version="1.1" xmlns="http://www.w3.org/2000/svg" xmlns:xlink="http://www.w3.org/1999/xlink" xmlns:sketch="http://www.bohemiancoding.com/sketch/ns">
    <g stroke="none" stroke-width="1" fill="none" fill-rule="evenodd">
        <g fill="#000000">
            <path d="M427,0 L85,0 C38.25,0 0,38.25 0,85 L0,427 C0,473.75 38.25,512 85,512 L427,512 C473.75,512 512,473.75 512,427 L512,85 C512,38.25 473.75,0 427,0 L427,0 Z M163.9,224 L348.1,224 C351.594,234.029 353.5,244.795 353.5,256 C353.5,309.762 309.762,353.5 256,353.5 C202.238,353.5 158.5,309.762 158.5,256 C158.5,244.795 160.406,234.029 163.9,224 L163.9,224 Z M448,224.025 L448,352 L448,416 C448,433.6 433.6,448 416,448 L96,448 C78.4,448 64,433.6 64,416 L64,352 L64,224.025 L64,224 L114.054,224 C111.733,234.301 110.5,245.008 110.5,256 C110.5,336.229 175.771,401.5 256,401.5 C336.229,401.5 401.5,336.229 401.5,256 C401.5,245.008 400.268,234.301 397.946,224 L448,224 L448,224.025 L448,224.025 Z M448,112 C448,120.8 440.8,128 432,128 L400,128 C391.2,128 384,120.8 384,112 L384,80 C384,71.2 391.2,64 400,64 L432,64 C440.8,64 448,71.2 448,80 L448,112 L448,112 Z"></path>
        </g>
    </g>
</svg>