<?xml version="1.0" encoding="UTF-8" standalone="no"?>
<svg width="512px" height="306px" viewBox="0 0 512 306" version="1.1" xmlns="http://www.w3.org/2000/svg" xmlns:xlink="http://www.w3.org/1999/xlink" xmlns:sketch="http://www.bohemiancoding.com/sketch/ns">
    <g stroke="none" stroke-width="1" fill="none" fill-rule="evenodd">
        <g fill="#000000">
            <path d="M409.79,303.379 C356.457,303.17 328.041,277.088 308.294,231.128 L302.645,218.587 L253.96,107.587 C237.814,68.294 197.749,41.751 152.543,41.751 C91.376,41.751 41.751,91.377 41.751,152.587 C41.751,213.796 91.375,263.421 152.543,263.421 C195.212,263.421 232.314,239.296 250.834,203.921 L270.522,249.337 C242.566,283.422 200.084,305.129 152.545,305.129 C68.29,305.129 0,236.878 0,152.586 C0,68.334 68.29,0 152.542,0 C216.125,0 267.46,33.959 293.542,94.126 C295.52,98.794 321.121,158.669 343.455,209.626 C357.289,241.167 369.085,262.085 407.333,263.378 C444.917,264.669 470.711,241.794 470.711,212.874 C470.711,184.624 451.043,177.833 417.836,166.792 C358.145,147.125 327.333,127.375 327.333,80.041 C327.333,33.873 358.749,3.082 409.79,3.082 C443.038,3.082 467.043,17.875 483.67,47.375 L451.042,64.041 C438.747,46.834 425.188,40.041 407.956,40.041 C384,40.041 366.893,56.709 366.893,78.874 C366.893,110.335 395.04,115.085 434.396,128.001 C487.375,145.251 512,164.961 512,214.169 C512.001,265.837 467.664,303.463 409.79,303.379 L409.79,303.379 Z"></path>
        </g>
    </g>
</svg>