<?xml version="1.0" encoding="UTF-8" standalone="no"?>
<svg width="512px" height="513px" viewBox="0 0 512 513" version="1.1" xmlns="http://www.w3.org/2000/svg" xmlns:xlink="http://www.w3.org/1999/xlink" xmlns:sketch="http://www.bohemiancoding.com/sketch/ns">
    <g stroke="none" stroke-width="1" fill="none" fill-rule="evenodd">
        <path d="M0,512 L96,512 L96,128 L0,128 L0,512 L0,512 Z M384,128 C301.812,129.376 261.376,189.282 256,192 L256,128 L160,128 L160,512 L256,512 L256,288 C256,279.782 276.25,214 352,224 C392.688,226.656 414.624,280.468 416,288 L416,512 L511.624,512.438 L511.624,246.594 C508.25,208.218 489.062,129.374 384,128 L384,128 Z M48,0 C21.5,0 0,21.468 0,48 C0,74.532 21.5,96 48,96 C74.5,96 96,74.532 96,48 C96,21.468 74.5,0 48,0 L48,0 Z" fill="#000000"></path>
    </g>
</svg>