<?xml version="1.0" encoding="UTF-8" standalone="no"?>
<svg width="512px" height="366px" viewBox="0 0 512 366" version="1.1" xmlns="http://www.w3.org/2000/svg" xmlns:xlink="http://www.w3.org/1999/xlink" xmlns:sketch="http://www.bohemiancoding.com/sketch/ns">
    <g stroke="none" stroke-width="1" fill="none" fill-rule="evenodd">
        <path d="M486.356571,26.0913506 L358.356571,26.0913506 C331.748571,11.5794506 288.713143,0.000125648524 256,0.000125648524 C223.357714,0.000125648524 180.285714,11.5794506 153.643429,26.0913506 L128,26.0913506 C127.179429,-0.356724351 105.856,0.000125648524 93.1428571,0.000125648524 L46.5714286,0.000125648524 C33.7508571,0.000125648524 25.6434286,13.5467006 25.6434286,26.0913506 C12.8228571,26.0913506 0,33.1322756 0,45.7501256 L0,320.090001 C0,332.813076 12.8205714,339.819688 25.6434286,339.819688 L153.643429,339.819688 C180.285714,354.258388 223.357714,365.981826 256,365.981826 C288.713143,365.981826 331.750857,354.258388 358.356571,339.817401 L486.356571,339.817401 C499.250286,339.817401 512,332.813076 512,320.087713 L512,45.7478381 C512,33.1322756 499.250286,26.0913506 486.356571,26.0913506 L486.356571,26.0913506 Z M25.6434286,313.584351 L25.6434286,52.2557756 L128,52.2557756 C89.2845714,85.7630756 69.856,128.225938 69.856,182.910913 C69.856,237.669088 89.2845714,280.200576 128,313.584351 L25.6434286,313.584351 L25.6434286,313.584351 Z M339.643429,320.090001 C327.643429,327.167526 314.642286,332.813076 300.786286,336.745288 C300.073143,336.887113 299.250286,337.102138 298.393143,337.388076 C292.786286,338.888676 287.142857,339.961513 281.357714,340.961151 C279.750857,341.102976 278.144,341.462113 276.571429,341.603938 C269.856,342.461751 262.964571,343.033626 256,343.033626 C249.035429,343.033626 242.144,342.461751 235.428571,341.603938 C233.856,341.462113 232.249143,341.102976 230.642286,340.961151 C224.857143,339.959226 219.142857,338.888676 213.570286,337.388076 C212.784,337.102138 211.926857,336.887113 211.142857,336.745288 C197.357714,332.813076 184.356571,327.165238 172.356571,320.090001 C124.928,292.209951 93.1428571,241.313076 93.1428571,182.910913 C93.1428571,124.579663 124.928,73.6827881 172.356571,45.7501256 C184.356571,38.6382881 197.357714,33.0270506 211.142857,29.1657506 C211.929143,28.9164131 212.786286,28.7357006 213.570286,28.5229631 C219.142857,27.0223631 224.857143,25.8786131 230.642286,25.0208006 C232.249143,24.6982631 233.856,24.4489256 235.462857,24.2705006 C242.178286,23.3760881 249.069714,22.8042131 255.997714,22.8042131 C262.925714,22.8042131 269.819429,23.3760881 276.532571,24.2705006 C278.139429,24.4489256 279.746286,24.7005506 281.353143,25.0208006 C287.138286,25.8786131 292.781714,27.0223631 298.388571,28.5229631 C299.245714,28.7379881 300.066286,28.9164131 300.781714,29.1657506 C314.637714,33.0270506 327.638857,38.6382881 339.638857,45.7501256 C387.067429,73.6827881 418.852571,124.579663 418.852571,182.910913 C418.857143,241.313076 387.072,292.209951 339.643429,320.090001 L339.643429,320.090001 Z M486.356571,313.584351 L384,313.584351 C422.749714,280.200576 442.249143,237.666801 442.249143,182.910913 C442.249143,128.225938 422.749714,85.7630756 384,52.2557756 L486.356571,52.2557756 L486.356571,313.584351 L486.356571,313.584351 Z M256,52.2557756 L256,78.4019006 C315.750857,78.4019006 358.356571,124.222813 358.356571,182.913201 L384,182.913201 C384,113.569926 326.642286,52.2557756 256,52.2557756 L256,52.2557756 Z" fill="#000000"></path>
    </g>
</svg>