<?xml version="1.0" encoding="UTF-8" standalone="no"?>
<svg width="512px" height="512px" viewBox="0 0 512 512" version="1.1" xmlns="http://www.w3.org/2000/svg" xmlns:xlink="http://www.w3.org/1999/xlink" xmlns:sketch="http://www.bohemiancoding.com/sketch/ns">
    <g stroke="none" stroke-width="1" fill="none" fill-rule="evenodd">
        <g fill="#000000">
            <path d="M352,197.13 L169.772,14.902 C196.717,5.264 225.742,0 256,0 C289.952,0 322.352,6.625 352,18.628 L352,197.13 L352,197.13 Z M384,352 L384,34.257 C460.517,78.521 512,161.246 512,256 C512,289.952 505.375,322.352 493.372,352 L384,352 L384,352 Z M160,384 L477.743,384 C433.479,460.517 350.754,512 256,512 C222.048,512 189.648,505.375 160,493.372 L160,384 L160,384 Z M213.13,112 L7.489,317.641 C2.607,297.896 0,277.254 0,256 C0,159.309 53.613,75.149 132.726,31.596 L213.13,112 L213.13,112 Z M128,250.87 L128,477.743 C80.702,450.382 42.982,408.319 21.063,357.807 L128,250.87 L128,250.87 Z"></path>
        </g>
    </g>
</svg>