<?xml version="1.0" encoding="UTF-8" standalone="no"?>
<svg width="399px" height="512px" viewBox="0 0 399 512" version="1.1" xmlns="http://www.w3.org/2000/svg" xmlns:xlink="http://www.w3.org/1999/xlink" xmlns:sketch="http://www.bohemiancoding.com/sketch/ns">
    <g stroke="none" stroke-width="1" fill="none" fill-rule="evenodd">
        <path d="M211.188,0 C70.812,0 0,100.188 0,183.718 C0,234.312 19.218,279.312 60.5,296.062 C67.312,298.686 73.344,296.186 75.312,288.718 C76.688,283.562 79.906,270.53 81.344,265.094 C83.312,257.718 82.562,255.094 77.094,248.718 C65.188,234.75 57.594,216.686 57.594,191.062 C57.594,116.718 113.47,50.218 203.062,50.218 C282.312,50.218 326,98.436 326,162.936 C326,247.686 288.312,319.186 232.376,319.186 C201.408,319.186 178.252,293.78 185.688,262.592 C194.564,225.404 211.75,185.186 211.75,158.248 C211.75,134.186 198.75,114.06 171.938,114.06 C140.314,114.06 114.97,146.654 114.97,190.216 C114.97,217.966 124.376,236.748 124.376,236.748 C124.376,236.748 92.064,373.154 86.376,396.998 C75.064,444.592 84.688,502.874 85.5,508.748 C85.968,512.248 90.5,513.092 92.5,510.436 C95.438,506.654 133.062,460.404 145.844,414.186 C149.5,401.154 166.626,333.342 166.626,333.342 C176.908,352.842 206.908,370.03 238.814,370.03 C333.782,370.03 398.252,283.874 398.252,168.468 C398.25,81.25 324.002,0 211.188,0 L211.188,0 Z" fill="#000000"></path>
    </g>
</svg>