<?xml version="1.0" encoding="UTF-8" standalone="no"?>
<svg width="448px" height="512px" viewBox="0 0 448 512" version="1.1" xmlns="http://www.w3.org/2000/svg" xmlns:xlink="http://www.w3.org/1999/xlink" xmlns:sketch="http://www.bohemiancoding.com/sketch/ns">
    <g stroke="none" stroke-width="1" fill="none" fill-rule="evenodd">
        <path d="M341.688,426.906 C405.5,386.25 448,313.594 448,230.656 C448,103.28 347.688,1.13686838e-13 224,1.13686838e-13 C100.25,1.13686838e-13 0,103.282 0,230.656 C0,358.062 100.25,461.344 224,461.344 C242.188,461.344 259.876,459.032 276.812,454.812 C298.062,494.124 330.436,521.936 399.218,508.624 L399.218,469.53 C399.218,469.532 355.124,458.282 341.688,426.906 L341.688,426.906 Z M340.124,261.156 C340.124,299.688 328.062,334.624 308.468,360.468 C283.844,333.844 245.25,311.936 196.28,314.718 L196.28,319.406 L196.28,360.062 C196.28,360.062 229.498,361.406 252.248,401.094 C243.716,403.656 234.842,405.032 225.686,405.032 C162.498,405.032 111.31,340.626 111.31,261.156 L111.31,201.75 C111.31,122.282 162.498,57.874 225.686,57.874 C288.904,57.874 340.124,122.28 340.124,201.75 L340.124,261.156 L340.124,261.156 Z" fill="#000000"></path>
    </g>
</svg>