<?xml version="1.0" encoding="UTF-8" standalone="no"?>
<svg width="512px" height="448px" viewBox="0 0 512 448" version="1.1" xmlns="http://www.w3.org/2000/svg" xmlns:xlink="http://www.w3.org/1999/xlink" xmlns:sketch="http://www.bohemiancoding.com/sketch/ns">
    <g stroke="none" stroke-width="1" fill="none" fill-rule="evenodd">
        <g fill="#000000">
            <path d="M128,256 C128,273.673112 142.326888,288 160,288 C177.673112,288 192,273.673112 192,256 C192,238.326888 177.673112,224 160,224 C142.326888,224 128,238.326888 128,256 L128,256 Z M320,256 C320,273.673112 334.326888,288 352,288 C369.673112,288 384,273.673112 384,256 C384,238.326888 369.673112,224 352,224 C334.326888,224 320,238.326888 320,256 L320,256 Z M321.556,324.389 C329.797,317.896 341.744,319.312 348.238,327.555 C354.732,335.798 353.314,347.744 345.071,354.238 C322.123,372.317 287.16,384 256,384 C224.839,384 189.876,372.317 166.928,354.239 C158.685,347.744 157.268,335.798 163.762,327.555 C170.257,319.314 182.203,317.896 190.445,324.389 C203.656,334.798 229.806,346 256,346 C282.194,346 308.344,334.798 321.556,324.389 L321.556,324.389 Z M512,192 C512,156.654 483.346,128 448,128 C423.942,128 403.004,141.285 392.074,160.91 C359.178,142.913 319.098,131.287 275.434,128.606 L313.625,42.843 L386.722,63.943 C393.298,82.614 411.081,96 432,96 C458.51,96 480,74.51 480,48 C480,21.49 458.51,0 432,0 C413.72,0 397.829,10.221 389.723,25.257 L308.27,1.745 C299.158,-0.884 289.501,3.606 285.644,12.271 L233.759,128.784 C191.19,131.782 152.128,143.295 119.941,160.902 C109.009,141.277 88.058,128 64,128 C28.654,128 0,156.654 0,192 C0,218.156 15.701,240.627 38.186,250.551 C34.151,262.565 32,275.103 32,288 C32,376.365 132.288,448 256,448 C379.711,448 480,376.365 480,288 C480,275.104 477.85,262.569 473.816,250.557 C496.301,240.632 512,218.156 512,192 L512,192 Z M432,30 C441.941,30 450,38.059 450,48 C450,57.941 441.941,66 432,66 C422.059,66 414,57.941 414,48 C414,38.059 422.059,30 432,30 L432,30 Z M32,192 C32,174.355 46.355,160 64,160 C76.754,160 87.786,167.502 92.923,178.323 C76.199,191.006 62.34,205.636 52.09,221.692 C40.328,216.957 32,205.436 32,192 L32,192 Z M256,410 C153.275,410 70,355.379 70,288 C70,220.621 153.275,166 256,166 C358.725,166 442,220.621 442,288 C442,355.379 358.725,410 256,410 L256,410 Z M459.91,221.692 C449.66,205.636 435.801,191.006 419.077,178.323 C424.215,167.502 435.246,160 448,160 C465.645,160 480,174.355 480,192 C480,205.436 471.672,216.957 459.91,221.692 L459.91,221.692 Z"></path>
        </g>
    </g>
</svg>