<?xml version="1.0" encoding="UTF-8" standalone="no"?>
<svg width="512px" height="505px" viewBox="0 0 512 505" version="1.1" xmlns="http://www.w3.org/2000/svg" xmlns:xlink="http://www.w3.org/1999/xlink" xmlns:sketch="http://www.bohemiancoding.com/sketch/ns">
    <g stroke="none" stroke-width="1" fill="none" fill-rule="evenodd">
        <g fill="#000000">
            <path d="M487.655,285.295 C489.061,274.895 489.87,264.322 489.87,253.559 C489.87,124.404 384.599,19.687 254.767,19.687 C241.863,19.687 229.212,20.747 216.901,22.767 C194.829,8.383 168.559,0 140.289,0 C62.766,1.11022302e-14 0,62.808 0,140.306 C0,168.504 8.299,194.7 22.59,216.695 C20.665,228.712 19.681,241.018 19.681,253.554 C19.681,382.73 124.898,487.436 254.766,487.436 C269.423,487.436 283.693,486.009 297.562,483.503 C319.112,496.872 344.496,504.651 371.708,504.651 C449.21,504.652 512,441.828 512,364.338 C511.997,335.045 503.04,307.81 487.655,285.295 L487.655,285.295 Z M276.74,425.922 C202.035,429.814 167.076,413.285 135.051,383.231 C99.286,349.664 113.653,311.377 142.791,309.43 C171.913,307.486 189.398,342.443 204.941,352.166 C220.465,361.854 279.535,383.926 310.735,348.258 C344.711,309.43 288.141,289.338 246.676,283.256 C187.473,274.49 112.726,242.464 118.541,179.349 C124.357,116.275 172.123,83.935 222.391,79.373 C286.468,73.556 328.182,89.08 361.176,117.233 C399.326,149.762 378.684,186.127 354.377,189.053 C330.165,191.962 302.973,135.549 249.586,134.701 C194.559,133.837 157.369,191.962 225.3,208.485 C293.266,224.99 366.05,231.771 392.261,293.902 C418.49,356.039 351.507,422.027 276.74,425.922 L276.74,425.922 Z"></path>
        </g>
    </g>
</svg>