<?xml version="1.0" encoding="UTF-8" standalone="no"?>
<svg width="512px" height="224px" viewBox="0 0 512 224" version="1.1" xmlns="http://www.w3.org/2000/svg" xmlns:xlink="http://www.w3.org/1999/xlink" xmlns:sketch="http://www.bohemiancoding.com/sketch/ns">
    <g stroke="none" stroke-width="1" fill="none" fill-rule="evenodd">
        <g fill="#000000">
            <path d="M445.98,97.102 C436.937,97.102 428.306,98.862 420.448,102.03 C415.195,44.851 365.303,0 304.448,0 C289.555,0 275.107,2.815 262.289,7.582 C257.309,9.433 256,11.342 256,15.04 L256,216.397 C256,220.28 259.12,223.514 263.062,223.895 C263.23,223.912 444.83,224 446.007,224 C482.459,224 512,195.592 512,160.553 C512,125.514 482.433,97.102 445.98,97.102 L445.98,97.102 Z M200,224 L216,224 L224,111.89 L216,0 L200,0 L192,111.89 L200,224 Z M152,224 L136,224 L128,142.625 L136,64 L152,64 L160,144 L152,224 Z M72,224 L88,224 L96,160 L88,96 L72,96 L64,160 L72,224 Z M8,192 L24,192 L32,160 L24,128 L8,128 L0,160 L8,192 Z"></path>
        </g>
    </g>
</svg>