<?xml version="1.0" encoding="UTF-8" standalone="no"?>
<svg width="512px" height="454px" viewBox="0 0 512 454" version="1.1" xmlns="http://www.w3.org/2000/svg" xmlns:xlink="http://www.w3.org/1999/xlink" xmlns:sketch="http://www.bohemiancoding.com/sketch/ns">
    <g stroke="none" stroke-width="1" fill="none" fill-rule="evenodd">
        <g fill="#000000">
            <path d="M352.002061,111.9995 C352.00206,129.148249 361.150808,144.994346 376.00206,153.568721 C390.853312,162.143095 409.150809,162.143095 424.002061,153.568721 C438.853313,144.994346 448.002061,129.148249 448.002061,111.9995 C448.002061,94.8507513 438.853313,79.0046539 424.002061,70.4302794 C409.150809,61.855905 390.853312,61.855905 376.00206,70.4302794 C361.150808,79.0046539 352.00206,94.8507513 352.002061,111.9995 L352.002061,111.9995 Z M479.198061,32.8035 C435.459061,-10.9345 364.545061,-10.9345 320.805061,32.8035 C303.016061,50.5925 292.463061,72.8765 289.144061,95.9995 L289.144061,95.9995 L186.797061,251.1135 C173.044061,251.8185 159.409061,255.3215 146.814061,261.6215 L67.8680608,199.9095 C49.5930608,185.6225 23.1970608,188.8585 8.91206077,207.1335 C-5.37393923,225.4085 -2.13893923,251.8045 16.1360608,266.0895 L94.1030608,327.0355 C85.6230608,360.4265 94.4390608,397.3045 120.568061,423.4325 C160.021061,462.8845 223.984061,462.8845 263.436061,423.4325 C287.669061,399.1995 297.011061,365.7185 291.474061,334.3495 L416.002061,222.8575 L416.001061,222.8565 C439.125061,219.5375 461.409061,208.9845 479.198061,191.1955 C522.937061,147.4575 522.937061,76.5425 479.198061,32.8035 L479.198061,32.8035 Z M192.002061,419.3485 C154.807061,419.3485 124.653061,389.1965 124.653061,351.9995 C124.653061,351.6435 124.674061,351.2925 124.680061,350.9375 L158.136061,377.0895 C165.816061,383.0925 174.927061,386.0015 183.973061,386.0015 C196.454061,386.0015 208.809061,380.4615 217.092061,369.8655 C231.378061,351.5905 228.143061,325.1945 209.868061,310.9095 L178.118061,286.0915 C182.599061,285.1525 187.242061,284.6515 192.002061,284.6515 C229.198061,284.6515 259.351061,314.8035 259.351061,352.0005 C259.351061,389.1975 229.198061,419.3485 192.002061,419.3485 L192.002061,419.3485 Z M400.002061,191.9995 C355.819061,191.9995 320.002061,156.1825 320.002061,111.9995 C320.002061,67.8165 355.819061,31.9995 400.002061,31.9995 C444.185061,31.9995 480.002061,67.8165 480.002061,111.9995 C480.002061,156.1825 444.185061,191.9995 400.002061,191.9995 L400.002061,191.9995 Z"></path>
        </g>
    </g>
</svg>