<?xml version="1.0" encoding="UTF-8" standalone="no"?>
<svg width="512px" height="512px" viewBox="0 0 512 512" version="1.1" xmlns="http://www.w3.org/2000/svg" xmlns:xlink="http://www.w3.org/1999/xlink" xmlns:sketch="http://www.bohemiancoding.com/sketch/ns">
    <g stroke="none" stroke-width="1" fill="none" fill-rule="evenodd">
        <g fill="#000000">
            <path d="M426,0 L86,0 C38.7,0 0,38.7 0,86 L0,426 C0,473.3 38.7,512 86,512 L426,512 C473.3,512 512,473.3 512,426 L512,86 C512,38.7 473.3,0 426,0 L426,0 Z M256,160 C238.355,160 224,174.355 224,192 L224,320 C224,372.936 180.935,416 128,416 C75.065,416 32,372.936 32,320 L32,256 L96,256 L96,320 C96,337.645 110.355,352 128,352 C145.645,352 160,337.645 160,320 L160,192 C160,139.065 203.065,96 256,96 C308.935,96 352,139.065 352,185 L352,216 L311,228 L288,216 L288,185 C288,174.355 273.645,160 256,160 L256,160 Z M480,320 C480,372.936 436.935,416 384,416 C331.065,416 288,372.936 288,313 L288,251 L311,263 L352,251 L352,313 C352,337.645 366.355,352 384,352 C401.645,352 416,337.645 416,320 L416,256 L480,256 L480,320 L480,320 Z"></path>
        </g>
    </g>
</svg>