<?xml version="1.0" encoding="UTF-8" standalone="no"?>
<svg width="320px" height="512px" viewBox="0 0 320 512" version="1.1" xmlns="http://www.w3.org/2000/svg" xmlns:xlink="http://www.w3.org/1999/xlink" xmlns:sketch="http://www.bohemiancoding.com/sketch/ns">
    <g stroke="none" stroke-width="1" fill="none" fill-rule="evenodd">
        <g fill="#000000">
            <path d="M191.92,223.998 L191.919,341.09 C191.919,370.799 191.534,387.918 194.684,396.34 C197.809,404.717 205.643,413.413 214.179,418.441 C225.521,425.235 238.45,428.629 253.033,428.629 C278.96,428.629 294.272,425.205 319.904,408.359 L319.904,485.331 C298.054,495.607 278.971,501.628 261.242,505.792 C243.492,509.913 224.312,511.995 203.71,511.995 C180.296,511.995 166.482,509.052 148.505,503.167 C130.526,497.233 115.175,488.764 102.495,477.897 C89.77,466.936 80.984,455.293 76.071,442.981 C71.158,430.663 68.713,412.774 68.713,389.359 L68.713,209.809 L0,209.809 L0,137.306 C20.104,130.785 42.582,121.412 56.89,109.23 C71.267,97.005 82.773,82.377 91.443,65.258 C100.139,48.185 106.117,26.402 109.379,0 L191.921,0 L191.92,127.998 L319.904,127.998 L319.904,223.998 L191.92,223.998 L191.92,223.998 Z"></path>
        </g>
    </g>
</svg>