<?xml version="1.0" encoding="UTF-8" standalone="no"?>
<svg width="512px" height="417px" viewBox="0 0 512 417" version="1.1" xmlns="http://www.w3.org/2000/svg" xmlns:xlink="http://www.w3.org/1999/xlink" xmlns:sketch="http://www.bohemiancoding.com/sketch/ns">
    <g stroke="none" stroke-width="1" fill="none" fill-rule="evenodd">
        <g fill="#000000">
            <path d="M512.002,49.255 C493.164,57.609 472.92,63.256 451.672,65.795 C473.358,52.795 490.015,32.21 497.858,7.68 C477.56,19.719 455.08,28.46 431.153,33.17 C411.993,12.755 384.692,-2.84217094e-14 354.48,-2.84217094e-14 C296.469,-2.84217094e-14 249.436,47.029 249.436,105.039 C249.436,113.272 250.365,121.289 252.156,128.978 C164.856,124.596 87.455,82.778 35.647,19.225 C26.605,34.739 21.424,52.783 21.424,72.034 C21.424,108.478 39.968,140.63 68.154,159.467 C50.935,158.921 34.738,154.196 20.577,146.328 C20.567,146.766 20.567,147.206 20.567,147.649 C20.567,198.543 56.776,240.997 104.828,250.649 C96.015,253.049 86.734,254.335 77.154,254.335 C70.385,254.335 63.805,253.675 57.39,252.449 C70.758,294.179 109.55,324.552 155.516,325.397 C119.566,353.572 74.273,370.364 25.058,370.364 C16.579,370.364 8.218,369.867 0,368.894 C46.486,398.699 101.701,416.091 161.021,416.091 C354.232,416.091 459.889,256.029 459.889,117.219 C459.889,112.665 459.786,108.135 459.584,103.629 C480.112,88.819 497.92,70.319 512.002,49.255 L512.002,49.255 Z"></path>
        </g>
    </g>
</svg>