<?xml version="1.0" encoding="UTF-8" standalone="no"?>
<svg width="512px" height="447px" viewBox="0 0 512 447" version="1.1" xmlns="http://www.w3.org/2000/svg" xmlns:xlink="http://www.w3.org/1999/xlink" xmlns:sketch="http://www.bohemiancoding.com/sketch/ns">
    <g stroke="none" stroke-width="1" fill="none" fill-rule="evenodd">
        <g fill="#000000">
            <path d="M0,121.550596 L20.797,148.822596 C20.797,148.822596 63.682,115.018596 77.977,131.921596 C92.271,148.822596 146.845,352.899596 165.062,390.544596 C180.962,423.559596 224.821,467.204596 272.919,436.035596 C320.987,404.865596 480.839,268.392596 509.452,107.227596 C538.042,-53.8854038 317.092,-20.1354038 293.687,120.232596 C352.182,85.1145962 383.405,134.501596 353.472,190.418596 C323.593,246.280596 296.292,282.714596 281.996,282.714596 C267.727,282.714596 256.751,245.330596 240.402,179.991596 C223.503,112.440596 223.606,-9.23840382 153.344,4.55659618 C87.085,17.5625962 0,121.550596 0,121.550596 L0,121.550596 Z"></path>
        </g>
    </g>
</svg>