<?xml version="1.0" encoding="UTF-8" standalone="no"?>
<svg width="512px" height="512px" viewBox="0 0 512 512" version="1.1" xmlns="http://www.w3.org/2000/svg" xmlns:xlink="http://www.w3.org/1999/xlink" xmlns:sketch="http://www.bohemiancoding.com/sketch/ns">
    <g stroke="none" stroke-width="1" fill="none" fill-rule="evenodd">
        <g fill="#000000">
            <path d="M0,256.188 C0,357.438 58.876,445.064 144.312,486.5 L22.156,152 C7.938,183.844 0,219.064 0,256.188 L0,256.188 Z"></path>
            <path d="M260.844,278 L184,501.188 C206.938,507.906 231.188,511.594 256.344,511.594 C286.126,511.594 314.72,506.406 341.344,497.032 C340.656,495.938 340.032,494.844 339.532,493.532 L260.844,278 L260.844,278 Z"></path>
            <path d="M428.686,243.094 C428.686,211.438 417.31,189.5 407.592,172.47 C394.624,151.376 382.468,133.564 382.468,112.438 C382.468,88.906 400.28,67.032 425.468,67.032 C426.562,67.032 427.656,67.156 428.75,67.25 C383.218,25.5 322.562,0 255.906,0 C166.438,0 87.75,45.906 42,115.376 C48,115.594 53.656,115.72 58.468,115.72 C85.25,115.72 126.75,112.438 126.75,112.438 C140.5,111.656 142.126,131.876 128.312,133.562 C128.312,133.562 114.5,135.156 99,136 L192.25,413.25 L248.282,245.25 L208.374,136 C194.592,135.156 181.53,133.562 181.53,133.562 C167.748,132.718 169.374,111.656 183.186,112.438 C183.186,112.438 225.436,115.72 250.592,115.72 C277.342,115.72 318.842,112.438 318.842,112.438 C332.624,111.656 334.248,131.876 320.436,133.562 C320.436,133.562 306.624,135.156 291.154,136 L383.686,411.124 L409.218,325.812 C422.186,292.562 428.686,265 428.686,243.094 L428.686,243.094 Z"></path>
            <path d="M481.656,160.376 C481.656,186.314 476.78,215.5 462.156,252.032 L384,478.094 C460.062,433.72 511.25,351.282 511.25,256.844 C511.25,212.312 499.906,170.5 479.906,134 C481,142.22 481.656,150.938 481.656,160.376 L481.656,160.376 Z"></path>
        </g>
    </g>
</svg>