<?xml version="1.0" encoding="UTF-8" standalone="no"?>
<svg width="510px" height="320px" viewBox="0 0 510 320" version="1.1" xmlns="http://www.w3.org/2000/svg" xmlns:xlink="http://www.w3.org/1999/xlink" xmlns:sketch="http://www.bohemiancoding.com/sketch/ns">
    <g stroke="none" stroke-width="1" fill="none" fill-rule="evenodd">
        <g fill="#000000">
            <path d="M424,224 L416.571,15.99 C416.257,7.195 423.2,0 432,0 L496,0 C504.8,0 510.734,7.088 509.188,15.751 L472,224 L424,224 Z M480,292 C480,307.4 467.4,320 452,320 L444,320 C428.6,320 416,307.4 416,292 L416,284 C416,268.6 428.6,256 444,256 L452,256 C467.4,256 480,268.6 480,284 L480,292 L480,292 Z M192,0 C85.961,0 0,71.634 0,160 C0,248.365 85.961,320 192,320 C298.039,320 384,248.365 384,160 C384,71.634 298.039,0 192,0 L192,0 Z M320,128 L282.869,128 L224,186.87 L224,224 L272,224 L272,256 L144,256 L144,224 L192,224 L192,186.87 L101.13,96 L80.099,96 L80.099,64 L175.902,64 L175.902,96 L154.87,96 L208,149.13 L224,133.13 L224,96 L320,96 L320,128 L320,128 Z"></path>
        </g>
    </g>
</svg>