<?xml version="1.0" encoding="UTF-8" standalone="no"?>
<svg width="384px" height="513px" viewBox="0 0 384 513" version="1.1" xmlns="http://www.w3.org/2000/svg" xmlns:xlink="http://www.w3.org/1999/xlink" xmlns:sketch="http://www.bohemiancoding.com/sketch/ns">
    <g stroke="none" stroke-width="1" fill="none" fill-rule="evenodd">
        <g fill="#000000">
            <path d="M173.255323,348.073112 C156.443323,346.229112 137.255323,379.761112 126.879323,392.729112 C116.503323,405.729112 76.3793235,451.479112 76.0033235,463.729112 C75.6913235,475.979112 97.3793235,488.947112 127.253323,501.197112 C157.035323,513.447112 190.691323,522.103112 192.065323,495.759112 C193.315323,469.477112 192.065323,395.635112 192.065323,387.353112 C192.065323,379.071112 192.693323,350.229112 173.255323,348.073112 L173.255323,348.073112 Z"></path>
            <path d="M147.657026,288.542639 C147.657026,274.166639 107.439026,253.918639 107.439026,253.918639 C107.439026,253.918639 33.8770262,218.606639 20.2510262,220.042639 C6.65702624,221.480639 1.37502624,260.418639 0.219026237,288.542639 C-3.06297376,367.792639 31.6250262,347.230639 31.6250262,347.230639 C31.6250262,347.230639 104.563026,321.292639 118.843026,315.542639 C133.063026,309.760639 147.657026,302.886639 147.657026,288.542639 L147.657026,288.542639 Z"></path>
            <path d="M167.909052,226.063475 C181.221052,227.125475 190.627052,217.063475 190.627052,199.813475 C190.627052,182.501475 196.471052,17.1254748 184.159052,5.18947482 C171.783052,-6.62252518 123.503052,4.75147482 110.253052,9.62747482 C82.0350516,19.8774748 50.6590516,35.8774748 50.0030516,49.5654748 C49.3470516,63.2534748 154.659052,225.001475 167.909052,226.063475 L167.909052,226.063475 Z"></path>
            <path d="M282.031667,267.124 C305.687667,262.062 382.125667,246.186 383.749667,224.562 C385.343667,203 339.373667,128 320.249667,128 C309.249667,128.438 225.625667,239.688 239.561667,260.624 C248.249667,273.624 258.343667,272.188 282.031667,267.124 L282.031667,267.124 Z"></path>
            <path d="M360.821777,357.005657 C345.227777,350.911657 259.727777,308.411657 244.789777,326.411657 C235.289777,337.879657 241.227777,356.661657 251.227777,374.723657 C261.289777,392.723657 297.603777,453.599657 297.603777,453.599657 C297.603777,453.599657 304.071777,469.787657 315.415777,469.787657 C326.759777,469.787657 349.133777,446.225657 360.477777,428.631657 C371.821777,411.037657 383.477777,389.849657 383.477777,378.287657 C383.477777,366.753657 376.353777,363.161657 360.821777,357.005657 L360.821777,357.005657 Z"></path>
        </g>
    </g>
</svg>