<?xml version="1.0" encoding="UTF-8" standalone="no"?>
<svg width="384px" height="512px" viewBox="0 0 384 512" version="1.1" xmlns="http://www.w3.org/2000/svg" xmlns:xlink="http://www.w3.org/1999/xlink" xmlns:sketch="http://www.bohemiancoding.com/sketch/ns">
    <g stroke="none" stroke-width="1" fill="none" fill-rule="evenodd">
        <path d="M102.525101,0 C115.181101,3.188 123.901101,6.218 134.401101,9.594 C150.401101,12.812 161.777101,16.438 176.277101,18.938 C233.589101,31.47 305.809101,13.438 354.089101,7.594 C355.557101,11.812 358.433101,18.844 358.401101,25.594 C358.401101,35.188 353.119101,46.656 350.307101,53.062 C338.369101,80.156 317.463101,93.906 301.151101,115.594 C266.183101,161.844 226.495101,207.406 185.713101,248.218 C161.181101,272.812 122.401101,304.374 106.275101,335.374 C173.431101,339.342 209.899101,381.78 261.399101,403.592 C281.681101,412.154 318.555101,427.216 350.305101,416.842 C362.023101,412.998 370.929101,403.966 380.555101,397.904 C382.931101,414.904 386.931101,435.592 380.555101,452.842 C368.617101,485.248 325.993101,525.154 272.743101,507.78 C211.619101,487.874 176.275101,437.28 115.711101,414.968 C95.2731015,407.406 72.0871015,405.468 45.7111015,405.468 C33.8351015,405.468 10.7731015,410.28 6.02310147,407.374 C-13.2588985,378.906 18.8991015,326.842 30.5851015,314.53 C71.0231015,271.936 112.335101,229.218 147.897101,181.906 C168.897101,153.968 199.335101,130.468 215.991101,98.53 L214.115101,98.53 C207.303101,102.968 193.521101,98.498 183.833101,100.436 C135.145101,110.06 71.2091015,106.498 72.2091015,56.842 C73.4271015,46.06 72.4271015,50.28 79.7711015,35.998 C86.0251015,23.968 92.8051015,12.812 102.525101,0 L102.525101,0 Z" fill="#000000"></path>
    </g>
</svg>