<?xml version="1.0" encoding="UTF-8" standalone="no"?>
<svg width="12px" height="14px" viewBox="0 0 12 14" version="1.1" xmlns="http://www.w3.org/2000/svg" xmlns:xlink="http://www.w3.org/1999/xlink" xmlns:sketch="http://www.bohemiancoding.com/sketch/ns">
    <!-- Generator: Sketch 3.2 (9961) - http://www.bohemiancoding.com/sketch -->
    <title>Untitled</title>
    <desc>Created with Sketch.</desc>
    <defs></defs>
    <g id="Page-1" stroke="none" stroke-width="1" fill="none" fill-rule="evenodd" sketch:type="MSPage">
        <path d="M2.46294539,10.0001481 C0.948054107,10.0001481 0,10.8956023 0,11.9996647 C0,13.1044912 0.728279262,14 2.2433466,14 C3.75923553,14 4.48839507,13.1044912 4.48839507,11.9996647 L4.48839507,5.99936842 L11.0611007,3.00009357 L11.0611007,9.40881871 C10.1221428,9.15589084 10.6811162,9.00038986 10.0601129,9.00038986 C8.54598449,9.00038986 7.6393619,9.89589864 7.6393619,10.9999064 C7.6393619,12.1047875 8.3042615,13.0002417 9.81927016,13.0002417 C11.3351591,13.0002417 12,12.1047875 12,10.9999064 L12,0 L3.54937843,3.99990643 L3.54937843,10.4094503 C2.61047916,10.1564678 3.08406608,10.0001481 2.46294539,10.0001481 Z" id="Shape" fill="#000000" sketch:type="MSShapeGroup"></path>
    </g>
</svg>