<?xml version="1.0" encoding="UTF-8" standalone="no"?>
<svg width="14px" height="15px" viewBox="0 0 14 15" version="1.1" xmlns="http://www.w3.org/2000/svg" xmlns:xlink="http://www.w3.org/1999/xlink" xmlns:sketch="http://www.bohemiancoding.com/sketch/ns">
    <!-- Generator: Sketch 3.2 (9961) - http://www.bohemiancoding.com/sketch -->
    <title>Untitled</title>
    <desc>Created with Sketch.</desc>
    <defs></defs>
    <g id="Page-1" stroke="none" stroke-width="1" fill="none" fill-rule="evenodd" sketch:type="MSPage">
        <path d="M0,6.99966829 C0.000995260664,3.13412785 3.13424171,0 7.00033175,0 C10.8669194,0 14,3.1342937 14,6.99966829 C14,10.8657063 10.8667536,13.9993366 7.00033175,14 C3.13424171,13.9993366 0.000995260664,10.866038 0,6.99966829 Z M2,6.99971319 C2.00602375,9.76099925 4.23925764,11.994694 7.00028685,12 C9.76160289,11.994694 11.9952671,9.76099925 12,6.99971319 C11.9952671,4.23900075 9.76160289,2.00501922 7.00028685,2 C4.23940107,2.00516262 2.00602375,4.23900075 2,6.99971319 Z M4.8580025,9.12117659 C4.28804192,8.53729435 3.99973397,7.7679661 4.00000019,7.00231949 C3.99973397,6.23558203 4.28617843,5.46325391 4.85853492,4.87868989 C5.42889482,4.293035 6.18147705,3.99891216 6.92860193,4.00000302 C7.67705787,3.99891216 8.42924078,4.29371679 9,4.87868989 L8.312906,5.58311203 C7.92916094,5.19053918 7.43107769,4.99636629 6.92860193,4.99582086 C6.4266586,4.99636629 5.92910777,5.19053918 5.5452296,5.58311203 C5.16228318,5.97513946 4.97300622,6.48593415 4.97247379,7.00231949 C4.97300622,7.51584133 5.16308182,8.02472702 5.54602824,8.41757259 C5.92857535,8.80905458 6.42625928,9.00350019 6.92860193,9.00404561 C7.43107769,9.00350019 7.92929404,8.80905458 8.31197426,8.41702716 L8.99986689,9.12117659 C8.42937389,9.70601333 7.67812272,9.99999981 6.93046542,9.99999981 C6.18094463,10.0002725 5.42836239,9.70601333 4.8580025,9.12117659 Z" id="ico-footer" fill="#FFFFFF" sketch:type="MSShapeGroup"></path>
    </g>
</svg>