<?xml version="1.0" encoding="UTF-8" standalone="no"?>
<svg width="21px" height="21px" viewBox="0 0 21 21" version="1.1" xmlns="http://www.w3.org/2000/svg" xmlns:xlink="http://www.w3.org/1999/xlink" xmlns:sketch="http://www.bohemiancoding.com/sketch/ns">
    <!-- Generator: Sketch 3.2.1 (9971) - http://www.bohemiancoding.com/sketch -->
    <title>Untitled</title>
    <desc>Created with Sketch.</desc>
    <defs></defs>
    <g id="Page-1" stroke="none" stroke-width="1" fill="none" fill-rule="evenodd" sketch:type="MSPage">
        <path d="M0,10.5 C0.0108448183,4.76869852 4.70096667,0 10.5,0 C13.7554667,0 16.6642,1.4819 18.5894333,3.80706667 L16.4157,5.9808 C15.0553667,4.19976667 12.9159333,3.04826667 10.5,3.04826667 C6.73866667,3.04826667 3.63976667,5.83333333 3,9 L7,9 C7,9 1.00525658,14.9611228 1,15 C0.365689917,13.4393228 0.0108448183,12.1037652 0,10.5 Z M21,10.5 C20.9891552,16.2313015 16.2990333,21 10.5,21 C7.24453333,21 4.3358,19.5181 2.41056667,17.1929333 L4.5843,15.0192 C5.94463333,16.8002333 8.08406667,17.9517333 10.5,17.9517333 C14.2613333,17.9517333 17.3602333,15.1666667 18,12 L14,12 C14,12 19.9947434,6.0388772 20,6 C20.6343101,7.5606772 20.9891552,8.89623481 21,10.5 Z" id="Shape" fill="#000000" sketch:type="MSShapeGroup"></path>
    </g>
</svg>