<?xml version="1.0" encoding="UTF-8" standalone="no"?>
<svg width="130px" height="23px" viewBox="0 0 130 23" version="1.1" xmlns="http://www.w3.org/2000/svg" xmlns:xlink="http://www.w3.org/1999/xlink" xmlns:sketch="http://www.bohemiancoding.com/sketch/ns">
    <!-- Generator: Sketch 3.2.1 (9971) - http://www.bohemiancoding.com/sketch -->
    <title>Untitled</title>
    <desc>Created with Sketch.</desc>
    <defs></defs>
    <g id="Page-1" stroke="none" stroke-width="1" fill="none" fill-rule="evenodd" sketch:type="MSPage">
        <g id="logo" sketch:type="MSLayerGroup">
            <path d="M16.2352941,16 L4,0 L0,0 L0,23 L4,23 L4,22 L0,22 L0,21 L4,21 L4,20 L4,20 L0,20 L0,19 L4,19 L4,18 L0,18 L0,16 L4,16 L4,6 L11.6470588,16 L16.2352941,16 Z M17,16 L17,0 L21,0 L21,23 L17,23 L16.2352941,22 L16.2352941,22 L21,22 L21,21 L15.4705882,21 L14.7058824,20 L21,20 L21,19 L13.9411765,19 L13.1764706,18 L21,18 L21,16 L17,16 Z M70,16 L70,0 L66,0 L66,23 L70,23 L70,22 L66,22 L66,21 L70,21 L70,21 L70,20 L70,20 L66,20 L66,19 L70,19 L70,18 L66,18 L66,16 L70,16 Z M87.5124367,18 L86.6916166,19 L86.6916166,19 L81.8242203,19 L82.6437508,18 L70,18 Z M89.1540768,16 L99.8024263,3.02718169 L99.8024263,0 L81.4280763,0 L81.4280763,3.55364807 L94.4020797,3.55364807 L94.4020797,3.65236052 L84.2828119,16 L70,16 Z M128.922166,18 C128.748994,18.3501825 128.554955,18.6835158 128.340048,19 L128.340048,19 L122.299762,19 C122.916308,18.7700145 123.467785,18.4366816 123.954195,18 L116.045805,18 C116.532215,18.4366816 117.083692,18.7700145 117.700238,19 L117.700238,19 L111.659952,19 C111.445045,18.6835158 111.251006,18.3501825 111.077834,18 L87.5124367,18 Z M129.641247,16 C129.880416,15.0200762 130,13.9435901 130,12.7705382 L130,0 L126.013514,0 L126.013514,12.6076487 C126.013514,13.9071821 125.803529,15.0379619 125.383555,16 L114.616445,16 C114.196471,15.0379619 113.986486,13.9071821 113.986486,12.6076487 L113.986486,0 L110,0 L110,12.7705382 C110,13.9435901 110.119584,15.0200762 110.358753,16 L89.1540768,16 Z M100,20 L100,21 L81,21 L81,20.0057225 L81.0046897,20 L100,20 L100,20 Z M127.539416,20 C127.428665,20.1179857 127.314175,20.2329526 127.195946,20.3449008 C126.949021,20.5787093 126.692861,20.7970756 126.427467,21 L126.427467,21 L113.572533,21 C113.307139,20.7970756 113.050979,20.5787093 112.804054,20.3449008 C112.685825,20.2329526 112.571335,20.1179857 112.460584,20 L127.539416,20 L127.539416,20 Z M100,22 L100,23 L81,23 L81,22 L100,22 L100,22 Z M124.792626,22 C123.394433,22.6666687 121.796896,23 120,23 C118.203104,23 116.605567,22.6666687 115.207374,22 L124.792626,22 L124.792626,22 Z" fill="#C86464" sketch:type="MSShapeGroup"></path>
            <path d="M43.5,23 C40.2499837,23 37.5208444,21.9025006 35.3125,19.7074689 C33.1041556,17.5124372 32,14.7766416 32,11.5 C32,8.22335844 33.1041556,5.48756284 35.3125,3.29253112 C37.5208444,1.0974994 40.2499837,-3.76728514e-15 43.5,0 C46.7500163,-3.76728514e-15 49.4791556,1.0974994 51.6875,3.29253112 C53.8958444,5.48756284 55,8.22335844 55,11.5 C55,14.7766416 53.8958444,17.5124372 51.6875,19.7074689 C49.4791556,21.9025006 46.7500163,23 43.5,23 Z M50.306897,3.83333333 L48.7411737,5.01732519 C50.4198937,6.66155128 51.4673846,8.95739879 51.4673846,11.5 C51.4673846,14.0426012 50.4198937,16.3384487 48.7411737,17.9813439 L50.306897,19.1666667 C52.2226366,17.1827882 53.4079994,14.4834927 53.4079994,11.5 C53.4079994,8.51650734 52.2226366,5.81588084 50.306897,3.83333333 Z M47.1936569,5.75 L45.9410782,6.63799389 C47.2840542,7.87116346 48.122047,9.59304909 48.122047,11.5 C48.122047,13.4069509 47.2840542,15.1288365 45.9410782,16.3610079 L47.1936569,17.25 C48.7262486,15.7620912 49.6745388,13.7376195 49.6745388,11.5 C49.6745388,9.26238051 48.7262486,7.23691063 47.1936569,5.75 Z M44.0804168,7.66666667 L43.1409828,8.25866259 C44.1482148,9.08077564 44.7767094,10.2286994 44.7767094,11.5 C44.7767094,12.7713006 44.1482148,13.9192244 43.1409828,14.7406719 L44.0804168,15.3333333 C45.2298606,14.3413941 45.9410782,12.9917463 45.9410782,11.5 C45.9410782,10.0082537 45.2298606,8.65794042 44.0804168,7.66666667 Z M41.9005419,9.58333333 L41.2742525,9.8793313 C41.9457405,10.2903878 42.3647369,10.8643497 42.3647369,11.5 C42.3647369,12.1356503 41.9457405,12.7096122 41.2742525,13.120336 L41.9005419,13.4166667 C42.6668377,12.9206971 43.1409828,12.2458732 43.1409828,11.5 C43.1409828,10.7541268 42.6668377,10.0789702 41.9005419,9.58333333 Z" id="Path" fill="#82A0C8" sketch:type="MSShapeGroup"></path>
        </g>
    </g>
</svg>